<?xml version="1.0" encoding="utf-8"?>
<!-- Generator: Adobe Illustrator 21.1.0, SVG Export Plug-In . SVG Version: 6.00 Build 0)  -->
<svg version="1.1" id="Layer_1" xmlns="http://www.w3.org/2000/svg" xmlns:xlink="http://www.w3.org/1999/xlink" x="0px" y="0px"
	 viewBox="0 0 496 154" style="enable-background:new 0 0 496 154;" xml:space="preserve">
<style type="text/css">
	.st0{fill:#FF0060;}
	.st1{fill:#FFFFFF;}
</style>
<path class="st0" d="M466.5,154H12.5c-7.5,0-13.3-6.1-12.4-12.9l17.7-131C18.6,4.3,23.9,0,30.2,0h453.3c7.5,0,13.3,6,12.4,12.9
	l-17,131C478.1,149.6,472.8,154,466.5,154z"/>
<g>
	<path class="st1" d="M106.7,49.4c-5.7-0.1-12.6,2-13.7,8.5c-1.1,6.6,8.5,8.8,12.9,10.7l2.1,1c11.9,5.4,22.7,12.1,21.3,26.8
		c-1.7,18.3-18,26.2-34.9,26.1c-18.1-0.2-30.3-11-29.4-29.5h19.1c-0.2,8.2,3.4,13,11.9,13.2c6,0.1,13-3,14.2-9.5
		c1.4-7.8-8.3-11-13.9-13l-1.6-0.5c-12.6-4.3-22.2-10.8-20.8-25.5c1.6-17.2,19.5-25.1,34.9-24.9c16.6,0.2,27.8,10.3,27.2,27.2h-19.1
		C116.9,53.3,113.5,49.6,106.7,49.4z"/>
	<path class="st1" d="M186.9,122h-53.7l15.3-88h19.3l-12.3,71h34.4L186.9,122z"/>
	<path class="st1" d="M192.2,122L236,34h20.7l13.3,88h-20.3l-1.7-17h-27l-7.6,17H192.2z M228.3,89h17.8l-2.9-31h-1L228.3,89z"/>
	<path class="st1" d="M345.1,122h-18.3l-21.2-55h-0.8l-9.8,55h-19.1l15.3-88h18.7l20.7,54h0.8l9.6-54h19.4L345.1,122z"/>
	<path class="st1" d="M431.3,50h-24.1l-12.3,71h-19.3l12.3-71h-23.8l2.8-16h67.2L431.3,50z"/>
</g>
</svg>
